<?xml version="1.0" standalone="no"?>
<!DOCTYPE svg PUBLIC "-//W3C//DTD SVG 20010904//EN"
 "http://www.w3.org/TR/2001/REC-SVG-20010904/DTD/svg10.dtd">
<svg version="1.0" xmlns="http://www.w3.org/2000/svg"
 width="512.000000pt" height="512.000000pt" viewBox="0 0 512.000000 512.000000"
 preserveAspectRatio="xMidYMid meet">
<metadata>
Created by potrace 1.14, written by Peter Selinger 2001-2017
</metadata>
<g transform="translate(0.000000,512.000000) scale(0.100000,-0.100000)"
fill="#000000" stroke="none">
<path d="M3183 5070 c-428 -112 -729 -600 -593 -963 57 -153 190 -265 350
-298 56 -11 188 -14 218 -5 9 3 32 8 49 11 42 7 124 38 188 72 323 170 517
542 440 844 -43 170 -173 300 -340 344 -81 21 -222 18 -312 -5z"/>
<path d="M1065 4994 c-94 -21 -225 -83 -311 -150 -356 -272 -446 -750 -188
-994 143 -135 356 -169 580 -91 376 129 636 552 549 892 -44 170 -171 298
-342 343 -68 18 -205 18 -288 0z"/>
<path d="M4568 3825 c-2 -2 -25 -6 -53 -9 -231 -30 -485 -220 -603 -451 -65
-128 -86 -210 -85 -345 0 -91 28 -200 64 -251 10 -15 19 -31 19 -36 0 -4 27
-34 59 -65 157 -150 393 -179 631 -77 224 95 402 288 482 522 29 83 32 104 32
212 0 108 -3 127 -28 190 -16 39 -40 86 -53 105 -64 89 -178 167 -280 191 -44
10 -179 20 -185 14z"/>
<path d="M1737 3304 c-1 -1 -33 -4 -72 -8 -38 -3 -80 -8 -93 -10 -176 -36
-311 -103 -436 -217 -28 -26 -64 -59 -81 -73 -64 -59 -232 -136 -325 -150
-210 -31 -375 -117 -510 -263 -151 -165 -223 -363 -216 -588 3 -60 7 -120 10
-132 3 -13 8 -33 11 -44 19 -87 73 -203 134 -287 92 -126 187 -199 391 -301
58 -29 112 -59 121 -67 8 -8 19 -14 23 -14 16 0 172 -128 233 -191 135 -139
206 -239 297 -420 32 -64 80 -145 106 -182 120 -163 341 -293 545 -322 50 -7
194 -7 243 1 322 48 602 298 676 604 9 36 25 103 36 150 35 146 87 240 204
365 165 176 247 407 239 669 -1 54 -8 126 -14 160 -6 33 -13 72 -15 85 -9 48
-67 215 -96 279 -158 342 -450 640 -788 808 -95 46 -263 107 -330 118 -19 3
-46 8 -60 11 -45 9 -227 24 -233 19z"/>
<path d="M4405 1703 c-145 -20 -316 -112 -441 -237 -276 -276 -327 -672 -116
-898 216 -231 623 -192 907 87 125 123 200 251 242 416 13 52 12 226 -2 278
-45 173 -173 300 -346 346 -50 14 -174 18 -244 8z"/>
</g>
</svg>
